<?xml version="1.0" encoding="UTF-8"?>
<!DOCTYPE svg PUBLIC "-//W3C//DTD SVG 1.1//EN" "http://www.w3.org/Graphics/SVG/1.1/DTD/svg11.dtd">
<svg xmlns="http://www.w3.org/2000/svg" version="1.1" width="800px" height="816px" style="shape-rendering:geometricPrecision; text-rendering:geometricPrecision; image-rendering:optimizeQuality; fill-rule:evenodd; clip-rule:evenodd" xmlns:xlink="http://www.w3.org/1999/xlink">
<g><path style="opacity:0.996" fill="#ea4334" d="M 379.5,-0.5 C 398.833,-0.5 418.167,-0.5 437.5,-0.5C 530.558,6.79116 611.392,41.7912 680,104.5C 680.667,105.5 680.667,106.5 680,107.5C 641.32,146.347 602.486,185.014 563.5,223.5C 511.876,176.793 451.21,156.96 381.5,164C 296.155,177.053 233.322,221.553 193,297.5C 188.2,308.073 183.7,318.74 179.5,329.5C 133.567,294.907 87.9005,259.907 42.5,224.5C 102.469,110.137 195.469,37.9707 321.5,8C 340.837,4.16668 360.17,1.33335 379.5,-0.5 Z"/></g>
<g><path style="opacity:0.997" fill="#fabb05" d="M 42.5,224.5 C 87.9005,259.907 133.567,294.907 179.5,329.5C 162.167,381.5 162.167,433.5 179.5,485.5C 133.683,520.249 88.0165,555.249 42.5,590.5C 18.1714,541.526 3.83809,489.86 -0.5,435.5C -0.5,416.833 -0.5,398.167 -0.5,379.5C 3.83809,325.14 18.1714,273.474 42.5,224.5 Z"/></g>
<g><path style="opacity:0.995" fill="#4285f3" d="M 799.5,393.5 C 799.5,409.167 799.5,424.833 799.5,440.5C 795.943,522.337 771.11,597.004 725,664.5C 710.783,683.554 694.95,701.22 677.5,717.5C 633.5,682.833 589.5,648.167 545.5,613.5C 588.159,583.904 615.159,543.571 626.5,492.5C 553.17,491.5 479.836,491.167 406.5,491.5C 406.5,438.5 406.5,385.5 406.5,332.5C 535.167,332.5 663.833,332.5 792.5,332.5C 795.507,352.899 797.84,373.232 799.5,393.5 Z"/></g>
<g><path style="opacity:0.997" fill="#34a853" d="M 179.5,485.5 C 209.051,566.552 265.051,619.718 347.5,645C 418.022,661.856 484.022,651.356 545.5,613.5C 589.5,648.167 633.5,682.833 677.5,717.5C 620.406,769.035 553.406,800.202 476.5,811C 463.707,812.71 451.04,814.21 438.5,815.5C 418.833,815.5 399.167,815.5 379.5,815.5C 242.359,802.064 136.193,738.064 61,623.5C 54.605,612.611 48.4383,601.611 42.5,590.5C 88.0165,555.249 133.683,520.249 179.5,485.5 Z"/></g>
</svg>
