<?xml version="1.0" encoding="UTF-8"?>
<!DOCTYPE svg PUBLIC "-//W3C//DTD SVG 1.1//EN" "http://www.w3.org/Graphics/SVG/1.1/DTD/svg11.dtd">
<svg xmlns="http://www.w3.org/2000/svg" version="1.1" width="586px" height="586px" style="shape-rendering:geometricPrecision; text-rendering:geometricPrecision; image-rendering:optimizeQuality; fill-rule:evenodd; clip-rule:evenodd" xmlns:xlink="http://www.w3.org/1999/xlink">
<g><path style="opacity:0.999" fill="#fcdb3e" d="M 264.5,-0.5 C 283.167,-0.5 301.833,-0.5 320.5,-0.5C 429.048,13.6669 508.215,69.3335 558,166.5C 572.483,197.776 581.649,230.442 585.5,264.5C 585.5,283.167 585.5,301.833 585.5,320.5C 570.818,430.747 513.818,510.58 414.5,560C 384.645,573.125 353.645,581.625 321.5,585.5C 302.167,585.5 282.833,585.5 263.5,585.5C 169.42,573.527 96.2538,528.193 44,449.5C 19.4744,409.795 4.64109,366.795 -0.5,320.5C -0.5,301.833 -0.5,283.167 -0.5,264.5C 13.6717,155.938 69.3384,76.7711 166.5,27C 197.794,12.5133 230.46,3.34659 264.5,-0.5 Z"/></g>
<g><path style="opacity:1" fill="#3a2929" d="M 276.5,147.5 C 328.914,144.029 375.247,158.863 415.5,192C 462.168,235.993 471.335,286.826 443,344.5C 421.703,377.782 392.203,400.615 354.5,413C 327.425,420.787 299.758,424.12 271.5,423C 257.998,432.923 243.664,441.59 228.5,449C 203.462,461.662 178.129,473.329 152.5,484C 165.605,468.285 178.105,452.118 190,435.5C 194,428.167 198,420.833 202,413.5C 203.349,409.634 203.515,405.801 202.5,402C 163.134,382.634 137.634,351.801 126,309.5C 124.92,303.861 124.087,298.195 123.5,292.5C 123.482,284.149 123.815,275.816 124.5,267.5C 130.775,235.404 146.442,208.904 171.5,188C 198.061,166.39 228.395,153.556 262.5,149.5C 267.414,149.638 272.081,148.972 276.5,147.5 Z"/></g>
<g><path style="opacity:1" fill="#66512e" d="M 276.5,147.5 C 272.081,148.972 267.414,149.638 262.5,149.5C 266.919,148.028 271.586,147.362 276.5,147.5 Z"/></g>
<g><path style="opacity:1" fill="#b49937" d="M 124.5,267.5 C 123.815,275.816 123.482,284.149 123.5,292.5C 122.835,289.518 122.502,286.352 122.5,283C 122.379,277.589 123.046,272.423 124.5,267.5 Z"/></g>
</svg>
