<svg width="68" height="66" viewBox="0 0 68 66" fill="none" xmlns="http://www.w3.org/2000/svg">
<path d="M35.4266 2.00861L42.056 22.4119C42.3907 23.4419 43.3506 24.1393 44.4336 24.1393H65.8869C67.34 24.1393 67.9441 25.9987 66.7686 26.8528L49.4125 39.4627C48.5363 40.0994 48.1697 41.2278 48.5044 42.2578L55.1338 62.6611C55.5828 64.0431 54.0011 65.1922 52.8255 64.3381L35.4695 51.7282C34.5932 51.0916 33.4068 51.0916 32.5305 51.7282L15.1745 64.3381C13.9989 65.1922 12.4172 64.0431 12.8662 62.6611L19.4956 42.2578C19.8303 41.2278 19.4637 40.0994 18.5875 39.4627L1.23143 26.8528C0.0558586 25.9987 0.660022 24.1393 2.11311 24.1393H23.5664C24.6494 24.1393 25.6093 23.4419 25.944 22.4119L32.5734 2.00861C33.0224 0.626644 34.9776 0.626644 35.4266 2.00861Z" stroke="black"/>
</svg>
