<svg width="68" height="66" viewBox="0 0 68 66" fill="none" xmlns="http://www.w3.org/2000/svg">
<path d="M32.0979 1.8541C32.6966 0.0114801 35.3034 0.0114801 35.9021 1.8541L42.5315 22.2574C42.7993 23.0814 43.5672 23.6393 44.4336 23.6393H65.8869C67.8243 23.6393 68.6299 26.1186 67.0625 27.2574L49.7064 39.8673C49.0054 40.3765 48.7121 41.2793 48.9799 42.1033L55.6093 62.5066C56.208 64.3492 54.099 65.8814 52.5316 64.7426L35.1756 52.1327C34.4746 51.6235 33.5254 51.6235 32.8244 52.1327L15.4684 64.7426C13.901 65.8814 11.792 64.3492 12.3907 62.5066L19.0201 42.1033C19.2879 41.2793 18.9946 40.3765 18.2936 39.8673L0.937536 27.2574C-0.629891 26.1186 0.17566 23.6393 2.11311 23.6393H23.5664C24.4328 23.6393 25.2007 23.0814 25.4685 22.2574L32.0979 1.8541Z" fill="#FFD231"/>
</svg>
