<svg width="100" height="100" viewBox="0 0 100 100" fill="none" xmlns="http://www.w3.org/2000/svg">
<path d="M69.4399 44.42C69.4399 33.51 60.5899 24.66 49.6799 24.66C38.7699 24.66 29.9199 33.51 29.9199 44.42C29.9199 56.08 40.2799 64.25 40.2799 69.86C40.2799 70.68 40.2599 73.56 40.2599 73.56L59.0999 73.33C59.0999 73.33 59.0699 70.57 59.0699 69.86C59.0699 64.26 69.4299 55.67 69.4299 44.42H69.4399Z" stroke="white" stroke-width="3" stroke-linecap="round" stroke-linejoin="round"/>
<path d="M40.0801 83.93H59.2801" stroke="white" stroke-width="3" stroke-linecap="round" stroke-linejoin="round"/>
<path d="M47.4102 94.69H51.9502" stroke="white" stroke-width="3" stroke-linecap="round" stroke-linejoin="round"/>
<path d="M50.1499 5V11.58" stroke="white" stroke-width="3" stroke-linecap="round" stroke-linejoin="round"/>
<path d="M21.9502 16.29L26.6002 20.94" stroke="white" stroke-width="3" stroke-linecap="round" stroke-linejoin="round"/>
<path d="M10 44.22H16.58" stroke="white" stroke-width="3" stroke-linecap="round" stroke-linejoin="round"/>
<path d="M89.3598 45.15H82.7798" stroke="white" stroke-width="3" stroke-linecap="round" stroke-linejoin="round"/>
<path d="M78.0699 16.95L73.4199 21.6" stroke="white" stroke-width="3" stroke-linecap="round" stroke-linejoin="round"/>
</svg>
